<svg width="323" height="290" viewBox="0 0 323 290" fill="none" xmlns="http://www.w3.org/2000/svg">
<path d="M256.369 281.786C250.455 284.685 244.35 286.831 238.136 288.197C221.04 291.953 203.511 289.82 187.199 282L191.883 256.823L192.166 255.312L201.725 255.362L249.748 255.592L250.363 258.025L256.369 281.786Z" fill="#2F2E41"/>
<path d="M44.0536 126.173C46.6792 126.173 48.8077 123.322 48.8077 119.805C48.8077 116.288 46.6792 113.437 44.0536 113.437C41.4281 113.437 39.2996 116.288 39.2996 119.805C39.2996 123.322 41.4281 126.173 44.0536 126.173Z" fill="#E6E6E6"/>
<path d="M125.285 217.305C125.62 217.766 125.928 218.262 126.205 218.787L169.27 217.376L174.294 205.078L189.139 212.809L181.824 235.737C181.233 237.589 180.21 239.134 178.907 240.141C177.605 241.148 176.094 241.561 174.601 241.32L125.945 233.447C124.797 235.393 123.234 236.825 121.464 237.552C119.694 238.28 117.8 238.268 116.035 237.519C114.27 236.77 112.717 235.318 111.583 233.358C110.449 231.398 109.787 229.021 109.685 226.544C109.584 224.068 110.048 221.609 111.015 219.494C111.983 217.379 113.408 215.709 115.101 214.706C116.795 213.703 118.676 213.414 120.495 213.877C122.314 214.341 123.984 215.536 125.284 217.302L125.285 217.305Z" fill="#9F616A"/>
<path d="M183.249 147.085L203.402 138.238L209.322 127.364L238.127 129.647L242.356 142.336L257.716 152.058L255.355 210.78L251.317 265.736C230.552 251.333 191.799 262.314 191.459 262.493L183.249 147.085Z" fill="#6C63FF"/>
<path d="M187.557 226.569L167.058 215.582L167.145 215.093C167.233 214.599 175.958 165.762 177.116 157.913C178.323 149.737 182.732 147.476 182.919 147.384L183.056 147.317L191.169 150.625L194.732 188.125L187.557 226.569Z" fill="#6C63FF"/>
<path d="M231.819 263.321C232.3 263.305 232.781 263.341 233.257 263.427L261.764 220.166L258.448 206.873L272.774 197.547L280.352 220.32C280.965 222.16 281.115 224.216 280.78 226.18C280.446 228.144 279.645 229.91 278.498 231.212L241.106 273.649C241.391 276.1 241.113 278.609 240.307 280.842C239.502 283.075 238.208 284.927 236.597 286.151C234.987 287.375 233.137 287.914 231.292 287.695C229.448 287.476 227.697 286.51 226.272 284.926C224.848 283.341 223.817 281.214 223.317 278.825C222.818 276.437 222.873 273.902 223.475 271.557C224.077 269.211 225.198 267.167 226.688 265.696C228.179 264.225 229.969 263.396 231.819 263.321V263.321Z" fill="#9F616A"/>
<path d="M259.489 224.377L247.597 186.908L252.235 160.808L257.233 152.351C257.599 152.141 257.993 152.035 258.391 152.04C258.789 152.045 259.182 152.161 259.545 152.379C261.39 153.373 262.957 156.418 264.21 161.431L275.355 203.953L259.489 224.377Z" fill="#6C63FF"/>
<path d="M197.791 113.479V85.2307C197.779 80.2598 198.498 75.3343 199.907 70.7355C201.315 66.1366 203.387 61.9545 206.002 58.4279C208.617 54.9013 211.726 52.0992 215.149 50.1817C218.573 48.2642 222.245 47.2688 225.956 47.2523C229.667 47.2358 233.344 48.1986 236.778 50.0857C240.211 51.9728 243.333 54.7472 245.966 58.2505C248.598 61.7539 250.69 65.9175 252.122 70.5037C253.553 75.09 254.296 80.009 254.308 84.9799C254.309 85.0635 254.309 85.1471 254.308 85.2307V113.479C254.307 114.827 253.907 116.12 253.195 117.073C252.484 118.026 251.519 118.563 250.512 118.564H201.587C200.581 118.563 199.616 118.026 198.904 117.073C198.193 116.12 197.793 114.827 197.791 113.479V113.479Z" fill="#2F2E41"/>
<path d="M220.243 117.906C231.685 117.906 240.961 105.481 240.961 90.1535C240.961 74.8263 231.685 62.4012 220.243 62.4012C208.801 62.4012 199.525 74.8263 199.525 90.1535C199.525 105.481 208.801 117.906 220.243 117.906Z" fill="#9F616A"/>
<path d="M191.106 87.4907C191.113 79.5519 193.47 71.9408 197.661 66.3272C201.852 60.7137 207.533 57.5561 213.46 57.5471H217.678C223.605 57.5561 229.286 60.7137 233.477 66.3273C237.668 71.9409 240.025 79.5519 240.032 87.4907V88.0555H231.118L228.078 76.6508L227.47 88.0555H222.864L221.33 82.3021L221.022 88.0555H191.106V87.4907Z" fill="#2F2E41"/>
<path d="M218.204 121.741C217.786 120.982 217.536 120.08 217.483 119.139C217.431 118.198 217.578 117.256 217.907 116.422C222.376 105.035 228.634 83.9926 220.328 71.0158L219.732 70.0845H243.847V118.582L221.941 123.759C221.719 123.812 221.494 123.838 221.269 123.839C220.671 123.839 220.082 123.649 219.549 123.284C219.017 122.92 218.556 122.391 218.206 121.742L218.204 121.741Z" fill="#2F2E41"/>
<path d="M44.0945 122.246C48.2593 112.022 58.2365 105.548 66.398 111.384C70.0716 114.01 72.9919 118.656 73.9189 124.147C74.9947 130.526 72.7279 136.608 70.3879 141.967C69.1179 144.876 67.7261 147.726 66.6749 150.794C65.5865 153.971 64.8086 157.644 65.628 161.1C66.3657 164.214 68.2154 166.479 70.241 168.143C72.4766 169.911 74.8545 171.334 77.3292 172.384C82.4232 174.653 87.7964 175.585 93.1539 175.127C95.8166 174.884 98.4569 174.313 101.041 173.419C103.79 172.48 106.487 171.29 109.241 170.372C113.838 168.842 119.079 168.082 123.438 171.154C127.673 174.14 129.568 180.385 130.154 186.46C131.237 197.678 127.916 209.319 121.921 217.174C119.045 220.943 115.425 224.057 111.483 225.331C108.043 226.443 103.627 226.372 100.889 222.927C97.8345 219.083 98.5531 212.918 100.979 208.863C104.076 203.688 109.322 202.445 114.004 202.319C119.329 202.175 124.649 203.238 129.972 202.577C132.57 202.306 135.119 201.483 137.523 200.137C139.637 198.892 141.565 197.144 143.214 194.979C146.5 190.703 148.716 185.006 149.818 179.083C151.145 171.96 150.856 164.474 149.826 157.319C149.277 153.63 148.57 149.986 147.708 146.406C147.353 144.895 145.572 145.541 145.93 147.063C149.102 160.536 150.871 176.115 144.742 188.625C142.206 193.93 138.255 197.739 133.694 199.277C128.39 201.043 122.824 200.17 117.432 199.908C112.304 199.658 106.674 199.927 102.279 203.928C98.673 207.209 96.1511 213.45 97.241 219.341C98.2919 225.023 102.368 227.905 106.445 228.349C110.723 228.816 114.932 226.893 118.525 223.886C125.998 217.63 130.966 206.629 132.006 194.965C132.548 188.888 131.997 182.341 129.939 176.825C128.855 173.839 127.168 171.32 125.068 169.553C122.975 167.835 120.558 166.988 118.129 166.689C112.613 166.009 107.312 168.546 102.079 170.486C99.4059 171.525 96.6657 172.226 93.8947 172.579C91.2052 172.878 88.5003 172.819 85.8195 172.403C83.1595 171.983 80.538 171.203 77.9949 170.077C75.5029 169.045 73.1169 167.6 70.8923 165.776C68.9298 164.094 67.2325 161.687 67.136 158.406C67.0312 154.848 68.3703 151.52 69.6441 148.52C72.1605 142.595 75.2689 136.8 75.9251 129.864C76.4999 123.796 74.6772 117.816 71.5298 113.488C69.9524 111.291 68.0534 109.555 65.9517 108.387C63.85 107.219 61.5909 106.645 59.3159 106.701C54.6461 106.88 50.1749 109.6 46.74 113.778C45.0365 115.851 43.6029 118.29 42.4984 120.995C41.9294 122.392 43.5213 123.64 44.0908 122.242L44.0945 122.246Z" fill="#3F3D56"/>
</svg>
