<svg width="1440" height="1024" viewBox="0 0 1440 1024" fill="none" xmlns="http://www.w3.org/2000/svg">
<rect width="1440" height="1024" fill="#E5E5E5"/>
<rect width="1440" height="1024" fill="white"/>
<g clip-path="url(#clip0_0_1)">
<path d="M1067.68 43.2755V806.649C1026.12 713.375 959.545 634.279 875.792 578.677C874.905 578.083 874.007 577.489 873.109 576.916C789.759 522.286 692.977 493.349 594.181 493.517H42.6525V43.2755H1067.68Z" fill="#3F3D56" fill-opacity="0.13"/>
<path d="M1042.03 878.809V837.471C959.869 652.7 778.757 524.34 568.529 524.34H17V878.809H1042.03Z" fill="#6C63FF" fill-opacity="0.34"/>
<path d="M135.417 128.313H104.982V96.9686H135.417V128.313ZM109.866 123.284H130.533V101.998H109.866V123.284Z" fill="#F2F2F2"/>
<path d="M763.594 788.541H69.9083V650.936H763.594V788.541ZM72.0459 786.339H761.456V653.138H72.0459V786.339Z" fill="#F2F2F2"/>
<path opacity="0.1" d="M147.935 705.427H92.3542V762.671H147.935V705.427Z" fill="black"/>
<path d="M710.151 676.806H253.751V691.117H710.151V676.806Z" fill="#F2F2F2"/>
<path d="M710.151 713.133H253.751V727.444H710.151V713.133Z" fill="#F2F2F2"/>
<path d="M710.151 749.461H253.751V763.772H710.151V749.461Z" fill="#F2F2F2"/>
<path d="M176.794 763.772H91.2853V675.705H176.794V763.772ZM93.423 761.57H174.656V677.907H93.423V761.57Z" fill="#F2F2F2"/>
<path d="M855.515 767.074C846.425 767.074 837.539 764.298 829.981 759.097C822.423 753.895 816.532 746.503 813.053 737.853C809.575 729.204 808.665 719.686 810.438 710.504C812.211 701.321 816.589 692.887 823.016 686.267C829.444 679.647 837.634 675.139 846.549 673.312C855.465 671.486 864.706 672.423 873.104 676.006C881.502 679.588 888.68 685.656 893.73 693.44C898.781 701.224 901.476 710.376 901.476 719.738C901.462 732.288 896.616 744.32 887.999 753.194C879.383 762.068 867.701 767.06 855.515 767.074V767.074ZM855.515 674.604C846.848 674.604 838.375 677.251 831.169 682.211C823.962 687.17 818.345 694.219 815.028 702.466C811.712 710.713 810.844 719.788 812.535 728.544C814.226 737.299 818.399 745.341 824.528 751.653C830.657 757.965 838.465 762.264 846.966 764.005C855.467 765.747 864.278 764.853 872.286 761.437C880.293 758.021 887.138 752.236 891.953 744.814C896.768 737.391 899.338 728.665 899.338 719.738C899.325 707.772 894.704 696.3 886.488 687.839C878.273 679.377 867.134 674.618 855.515 674.604V674.604Z" fill="#F2F2F2"/>
<path d="M885.13 692.996L883.619 691.439L855.515 720.384L827.413 691.439L825.901 692.996L854.005 721.939L829.642 747.031L831.152 748.588L855.515 723.497L879.878 748.588L881.39 747.031L857.027 721.939L885.13 692.996Z" fill="#F2F2F2"/>
<path d="M843.64 63.1566L194.472 176.278L246.59 493.517H248.749L196.931 178.073L841.888 65.6996L924.392 567.977L873.109 576.916C874.007 577.489 874.905 578.083 875.792 578.677L926.861 569.783L843.64 63.1566Z" stroke="#F2F2F2" stroke-width="2" stroke-miterlimit="10"/>
<path d="M550.358 360.467C571.834 427.035 564.292 489.539 564.292 489.539C564.292 489.539 521.929 444.114 500.453 377.545C478.976 310.977 486.519 248.474 486.519 248.474C486.519 248.474 528.881 293.899 550.358 360.467Z" fill="#6C63FF" fill-opacity="0.19"/>
<path d="M578.225 360.467C556.749 427.035 564.291 489.539 564.291 489.539C564.291 489.539 606.654 444.114 628.13 377.545C649.607 310.977 642.064 248.474 642.064 248.474C642.064 248.474 599.702 293.899 578.225 360.467Z" fill="#6C63FF" fill-opacity="0.14"/>
<path d="M586.875 361.187C588.315 431.318 563.194 488.743 563.194 488.743C563.194 488.743 535.739 432.463 534.299 362.332C532.86 292.201 557.981 234.776 557.981 234.776C557.981 234.776 585.436 291.056 586.875 361.187Z" fill="#F2F2F2"/>
<path d="M560.587 306.072C564.269 306.072 567.253 302.999 567.253 299.207C567.253 295.415 564.269 292.341 560.587 292.341C556.906 292.341 553.921 295.415 553.921 299.207C553.921 302.999 556.906 306.072 560.587 306.072Z" fill="#6C63FF"/>
<path d="M547.625 357.945C549.671 357.945 551.329 356.237 551.329 354.131C551.329 352.024 549.671 350.317 547.625 350.317C545.58 350.317 543.922 352.024 543.922 354.131C543.922 356.237 545.58 357.945 547.625 357.945Z" fill="#6C63FF"/>
<path d="M502.444 320.185C504.49 320.185 506.148 318.477 506.148 316.371C506.148 314.264 504.49 312.556 502.444 312.556C500.399 312.556 498.741 314.264 498.741 316.371C498.741 318.477 500.399 320.185 502.444 320.185Z" fill="#3F3D56" fill-opacity="0.12"/>
<path d="M633.173 283.187C635.218 283.187 636.876 281.48 636.876 279.373C636.876 277.267 635.218 275.559 633.173 275.559C631.128 275.559 629.47 277.267 629.47 279.373C629.47 281.48 631.128 283.187 633.173 283.187Z" fill="#3F3D56"/>
<path d="M521.702 356.038C523.747 356.038 525.405 354.33 525.405 352.224C525.405 350.117 523.747 348.41 521.702 348.41C519.656 348.41 517.998 350.117 517.998 352.224C517.998 354.33 519.656 356.038 521.702 356.038Z" fill="#3F3D56"/>
<path d="M599.472 333.916C601.518 333.916 603.176 332.208 603.176 330.102C603.176 327.995 601.518 326.287 599.472 326.287C597.427 326.287 595.769 327.995 595.769 330.102C595.769 332.208 597.427 333.916 599.472 333.916Z" fill="#3F3D56"/>
<path d="M523.924 412.106C525.969 412.106 527.627 410.399 527.627 408.292C527.627 406.186 525.969 404.478 523.924 404.478C521.879 404.478 520.22 406.186 520.22 408.292C520.22 410.399 521.879 412.106 523.924 412.106Z" fill="#3F3D56"/>
<path d="M603.176 390.366C605.221 390.366 606.879 388.658 606.879 386.551C606.879 384.445 605.221 382.737 603.176 382.737C601.131 382.737 599.472 384.445 599.472 386.551C599.472 388.658 601.131 390.366 603.176 390.366Z" fill="#3F3D56"/>
<path d="M567.253 394.18C569.299 394.18 570.957 392.472 570.957 390.366C570.957 388.259 569.299 386.551 567.253 386.551C565.208 386.551 563.55 388.259 563.55 390.366C563.55 392.472 565.208 394.18 567.253 394.18Z" fill="#6C63FF"/>
<path d="M1349.29 887.934C1349.29 887.934 1353.42 930.481 1360.3 944.664C1360.3 944.664 1318.99 954.591 1317.62 946.082C1316.24 937.572 1318.99 904.953 1318.99 904.953L1349.29 887.934Z" fill="#A0616A" fill-opacity="0.36"/>
<path d="M1142.73 909.207C1142.73 909.207 1146.86 951.755 1153.75 965.937C1153.75 965.937 1112.44 975.865 1111.06 967.355C1109.68 958.846 1113.81 913.462 1113.81 913.462L1142.73 909.207Z" fill="#A0616A" fill-opacity="0.47"/>
<path d="M1321.75 314.963C1321.75 314.963 1350.66 414.24 1332.76 432.677C1314.86 451.115 1272.17 513.517 1272.17 513.517L1258.4 489.407C1258.4 489.407 1306.6 419.913 1301.09 404.313C1295.58 388.712 1281.81 346.165 1281.81 346.165C1281.81 346.165 1305.22 309.29 1321.75 314.963Z" fill="#A0616A" fill-opacity="0.57"/>
<path d="M1186.8 194.412C1217.22 194.412 1241.88 169.014 1241.88 137.683C1241.88 106.352 1217.22 80.9528 1186.8 80.9528C1156.38 80.9528 1131.72 106.352 1131.72 137.683C1131.72 169.014 1156.38 194.412 1186.8 194.412Z" fill="#A0616A" fill-opacity="0.42"/>
<path d="M1236.37 144.774C1236.37 144.774 1258.4 205.758 1270.8 211.431C1283.19 217.104 1305.22 244.051 1305.22 244.051C1305.22 244.051 1307.98 314.963 1292.83 314.963C1277.68 314.963 1193.68 214.268 1193.68 214.268C1193.68 214.268 1197.81 194.412 1189.55 183.066C1181.29 171.72 1236.37 144.774 1236.37 144.774Z" fill="#A0616A" fill-opacity="0.57"/>
<path d="M1257.03 424.168V441.187C1257.03 441.187 1281.81 485.152 1283.19 564.574L1295.58 706.398C1295.58 706.398 1360.3 814.185 1350.66 876.588L1352.04 900.698L1318.99 912.044L1307.98 892.188C1307.98 892.188 1296.96 890.77 1287.32 859.569L1228.11 721.999L1192.31 609.958L1170.27 756.037C1170.27 756.037 1179.91 890.77 1155.12 895.025V916.299L1109.68 917.717V897.861C1109.68 897.861 1094.54 903.534 1095.91 879.424C1097.29 855.314 1095.91 750.364 1095.91 750.364L1087.65 570.247C1087.65 570.247 1069.35 485.872 1079.19 469.202L1133.09 375.948L1257.03 424.168Z" fill="#2F2E41" fill-opacity="0.38"/>
<path d="M1352.04 941.827C1352.04 941.827 1365.81 936.154 1368.57 943.245C1371.32 950.337 1390.6 988.629 1368.57 991.466C1346.53 994.302 1332.76 991.466 1332.76 991.466C1332.76 991.466 1314.86 988.629 1307.98 990.047C1301.09 991.466 1273.55 987.211 1276.3 965.937C1279.06 944.664 1296.96 947.5 1296.96 947.5C1296.96 947.5 1314.86 936.154 1314.86 931.899C1314.86 927.645 1321.75 938.991 1321.75 938.991C1321.75 938.991 1327.26 948.918 1352.04 941.827Z" fill="#2F2E41"/>
<path d="M1145.49 963.101C1145.49 963.101 1159.26 957.428 1162.01 964.519C1164.76 971.61 1184.04 1009.9 1162.01 1012.74C1139.98 1015.58 1126.21 1012.74 1126.21 1012.74C1126.21 1012.74 1108.31 1009.9 1101.42 1011.32C1094.54 1012.74 1066.99 1008.48 1069.75 987.211C1072.5 965.937 1090.4 968.774 1090.4 968.774C1090.4 968.774 1108.31 957.428 1108.31 953.173C1108.31 948.918 1115.19 960.264 1115.19 960.264C1115.19 960.264 1120.7 970.192 1145.49 963.101Z" fill="#2F2E41"/>
<path d="M1277.68 288.017C1277.68 288.017 1324.5 276.996 1277.68 215.849C1277.68 215.849 1314.86 227.032 1318.99 256.815C1323.12 286.598 1324.5 323.473 1324.5 323.473C1324.5 323.473 1301.09 316.381 1288.7 349.001C1276.3 381.621 1258.4 398.64 1263.91 432.677L1126.21 380.202C1126.21 380.202 1145.49 339.073 1135.85 320.636C1126.21 302.199 1138.6 268.161 1138.6 268.161C1138.6 268.161 1175.78 175.975 1210.21 212.85C1244.63 249.724 1241.88 279.507 1277.68 288.017Z" fill="#E1CDCD" fill-opacity="0.79"/>
<path d="M1196.44 282.344C1196.44 282.344 1190.93 375.948 1175.78 392.967C1160.63 409.986 1100.04 480.898 1100.04 480.898L1097.29 497.917L1083.52 507.844C1083.52 507.844 1069.75 473.807 1084.9 459.624L1137.22 363.183L1149.62 272.416L1196.44 282.344Z" fill="#A0616A" fill-opacity="0.33"/>
<path d="M1153.75 208.595C1153.75 208.595 1185.85 189.485 1194.59 206.84C1203.32 224.195 1199.19 293.689 1199.19 293.689L1141.35 286.598C1141.35 286.598 1145.49 210.013 1153.75 208.595Z" fill="#CDCDE1" fill-opacity="0.1"/>
<path d="M1123.65 134.25C1113.47 121.685 1121.94 121.671 1121.94 121.671C1122.64 126.181 1127.16 131.783 1131.73 136.449C1134.97 139.727 1138.4 142.805 1142 145.667L1141.04 142.221L1150 148.291C1152.96 176.131 1168.23 172.217 1168.23 172.217C1155.65 164.09 1159.13 150.574 1160.88 143.809C1162.62 137.044 1174.4 138.477 1175.09 158.247C1175.78 178.017 1188.81 182.953 1188.81 182.953L1191.31 194.214L1193.5 204.028L1199.47 192.909L1202.26 187.69C1220.99 189.619 1223.18 171.493 1223.18 171.493C1227.41 169.442 1231.48 167.077 1235.38 164.416C1264.64 144.192 1254.81 120.961 1247.76 110.296C1246.39 108.192 1244.86 106.209 1243.17 104.368C1243.59 104.453 1244 104.538 1244.4 104.609C1300.54 115.43 1272.08 82.0448 1272.08 82.0448L1286.16 89.0935L1312.58 92.4831L1291.25 72.6135C1306.53 71.7625 1321.86 96.3123 1322.33 97.064C1312.84 67.4369 1294.28 70.4577 1294.28 70.4577L1299.88 68.7984L1290.1 64.2033L1301.46 65.82C1301.46 65.82 1298.25 63.0261 1293.28 58.2608C1288.31 53.4955 1264.79 51.751 1264.79 51.751C1288.77 42.1353 1312.34 61.3525 1312.34 61.3525C1299.38 31.1014 1267.53 41.8375 1251.75 49.5386L1244.04 50.4604C1244.21 49.8789 1244.41 47.4963 1244.29 39.1145C1244.1 25.783 1228.78 49.0138 1228.03 50.1626C1228.03 49.9924 1227.23 49.0847 1216.79 44.8016C1204.62 39.7952 1209.81 67.295 1209.96 68.0325V68.0466C1209.96 68.0466 1210.08 68.231 1209.06 68.0891C1207.15 67.8338 1201.21 66.4156 1182.98 60.459C1167.23 55.3108 1157.47 60.6292 1151.93 66.2596C1144.67 73.8493 1136.03 79.9008 1126.51 84.0727C1123.44 85.3775 1120.69 86.4554 1118.9 86.9943C1112.19 88.9799 1108.68 93.7735 1102.15 109.445C1095.73 124.904 1122.89 134.009 1123.65 134.25Z" fill="#5C5E12" fill-opacity="0.28"/>
<path d="M1209.06 68.0893C1215.52 77.5632 1234.19 103.758 1247.76 110.296C1246.39 108.192 1244.86 106.209 1243.17 104.368C1243.59 104.453 1244 104.538 1244.4 104.609L1209.96 68.061V68.0326L1209.06 68.0893Z" fill="#D0CDE1"/>
</g>
<defs>
<clipPath id="clip0_0_1">
<rect width="1362" height="979" fill="white" transform="translate(17 35)"/>
</clipPath>
</defs>
</svg>
